PathFileType	4	(X/Y/Z)	Walk6.trc
DataRate	CameraRate	NumFrames	NumMarkers	Units	OrigDataRate	OrigDataStartFrame	OrigNumFrames
200.000000	200.000000	7	60	mm	200.000000	670	752
Frame#	Times		RCAR		LTH3		RTH2		LBHD		LWRU		LCAR		LUA1		LFA1		LElbow		RTB3		RFA1		RToe		RASI		LElbowM		RMT5		RTB2		C7		RLFC		LTH2		RBHD		RPSI		LWRR		RMT1		RWRU		RTB1		LASI		RTB4		STRN		T10		CLAV		RBack		LPSI		RLMAL		RElbow		LTH4		LLFC		RUA1		LTB4		LACR1		LTB3		RCAL		LFHD		RTH3		LCAL		LTB1		LMMAL		RElbowM		RTH1		LTB2		RFHD		RACR1		LMFC		RTH4		RMFC		LLMAL		LMT5		RWRR		LTH1		LToe		LMT1
			X1	Y1	Z1	X2	Y2	Z2	X3	Y3	Z3	X4	Y4	Z4	X5	Y5	Z5	X6	Y6	Z6	X7	Y7	Z7	X8	Y8	Z8	X9	Y9	Z9	X10	Y10	Z10	X11	Y11	Z11	X12	Y12	Z12	X13	Y13	Z13	X14	Y14	Z14	X15	Y15	Z15	X16	Y16	Z16	X17	Y17	Z17	X18	Y18	Z18	X19	Y19	Z19	X20	Y20	Z20	X21	Y21	Z21	X22	Y22	Z22	X23	Y23	Z23	X24	Y24	Z24	X25	Y25	Z25	X26	Y26	Z26	X27	Y27	Z27	X28	Y28	Z28	X29	Y29	Z29	X30	Y30	Z30	X31	Y31	Z31	X32	Y32	Z32	X33	Y33	Z33	X34	Y34	Z34	X35	Y35	Z35	X36	Y36	Z36	X37	Y37	Z37	X38	Y38	Z38	X39	Y39	Z39	X40	Y40	Z40	X41	Y41	Z41	X42	Y42	Z42	X43	Y43	Z43	X44	Y44	Z44	X45	Y45	Z45	X46	Y46	Z46	X47	Y47	Z47	X48	Y48	Z48	X49	Y49	Z49	X50	Y50	Z50	X51	Y51	Z51	X52	Y52	Z52	X53	Y53	Z53	X54	Y54	Z54	X55	Y55	Z55	X56	Y56	Z56	X57	Y57	Z57	X58	Y58	Z58	X59	Y59	Z59	X60	Y60	Z60

670	3.35	747.92	906.13	347.18	615.55	616.15	-137.47	567.08	682.6	195.64	472.72	1629.8	-72.742	420.33	844.26	-252.17	481.55	789.77	-252.42	455.85	1278.7	-248.42	408.3	977.05	-265.01	409.9	1128	-260.87	284.12	223.47	135.77	595.1	1010.4	345.75	288.15	30.693	160.08	577.69	1033.9	165.61	377.81	1127.1	-189.98	199.87	54.365	204.87	323.88	302.01	205.09	456.66	1504.3	5.3649	443.51	488.83	214.41	655.67	726.63	-131.72	482.66	1640.8	69.139	366.27	1012.8	68.487	485.62	845.3	-201.62	248.7	40.599	133.71	680.09	902.37	341.5	417.56	353.5	151.61	575.71	1030	-117.14	351.08	287.58	142.04	641.54	1248.3	4.4658	358.32	1279.2	17.006	591.5	1421	2.7059	387.58	1418	143.68	364.69	1008.7	-9.0122	165.15	160.1	172.01	514.08	1142.9	324.83	590.77	704.46	-153.38	634.58	517.58	-128.44	529.28	1296.7	271.63	680.2	293.75	-50.165	520.86	1453.4	-164.39	671.45	197.83	-52.017	107.74	166.15	115.72	650.01	1684.6	-43.973	481.81	599.57	216.28	565.54	28.162	-57.548	688.22	383.63	-50.663	651.74	89.415	-14.61	490.2	1114.7	248.95	510.81	787.47	221.38	660.2	296.72	-123.4	654.48	1689.2	32.759	540.22	1460.4	162.67	646.58	525.08	1.1518	499.17	692.26	222.4	468.86	491.59	89.046	626.3	69.548	-97.292	724.61	22.726	-130.94	728.09	937.5	291.12	568.08	794.02	-165.74	825.18	31.188	-60.682	772.02	39.742	-46.211
671	3.355	749.35	904.61	346.78	618.42	616.26	-138.18	574.99	683.44	195.82	477.67	1630.6	-73.65	429.17	844.86	-253.46	490.87	790.9	-253.7	461.93	1279.4	-249.52	416.2	977.57	-266.41	416.73	1128.6	-262.26	291.69	225.6	136.36	597.41	1010.3	344.55	290.84	31.237	160.54	582.93	1034.8	164.54	384.45	1127.4	-191.44	203.98	57.283	205.02	332.08	303.81	205.49	461.54	1505	4.4882	453.43	488.88	215.04	659.5	726.41	-132.62	487.58	1641.7	68.228	371.45	1013.3	67.585	494.46	846.44	-202.89	252.15	41.767	134.1	681.52	901.57	340.73	426.77	354.02	152.3	581.05	1030.9	-117.88	359.36	288.87	142.74	646.68	1249.2	3.6986	363.5	1279.8	16.036	596.47	1421.9	1.9529	392.36	1418.7	142.68	369.97	1009.6	-9.9672	171.69	163.86	172.14	517.51	1143.4	323.31	594.37	704.78	-154.12	636.89	517.51	-129.05	533.42	1297.2	270.55	681.51	293.48	-50.58	526.04	1454.3	-165.14	672.16	197.6	-52.274	114.81	171.23	115.5	654.94	1685.4	-44.878	490.67	599.49	216.64	565.5	28.134	-57.577	690.07	383.33	-51.27	651.77	89.388	-14.625	493.86	1115.6	247.18	517.42	787.73	221.04	661.31	296.48	-123.75	659.41	1690.1	31.855	544.96	1461.3	161.94	648.86	525.03	0.46353	506.93	692.41	222.46	480.04	490.63	89.063	626.26	69.535	-97.3	724.58	22.725	-130.99	730.06	936.3	290.7	572.42	794.51	-166.57	825.16	31.249	-60.748	771.98	39.826	-46.272
672	3.36	750.69	903.07	346.37	621.18	616.37	-138.87	582.86	684.36	196.05	482.6	1631.4	-74.518	438.1	845.48	-254.74	500.3	792.09	-255	468.02	1280.2	-250.6	424.17	978.11	-267.81	423.59	1129.1	-263.66	299.48	227.72	136.89	599.68	1010.2	343.37	294.18	31.925	161.1	588.13	1035.7	163.54	391.11	1127.7	-192.92	208.62	60.283	205.23	340.48	305.59	205.87	466.42	1505.8	3.6454	463.37	488.99	215.63	663.22	726.19	-133.49	492.47	1642.6	67.36	376.58	1013.9	66.68	503.42	847.64	-204.18	256.19	43.12	134.58	682.87	900.78	339.99	436.12	354.63	152.91	586.35	1031.8	-118.58	367.8	290.18	143.37	651.81	1250.2	2.968	368.65	1280.5	15.073	601.43	1422.8	1.2365	397.11	1419.4	141.68	375.18	1010.5	-10.921	178.54	167.51	172.25	520.92	1143.9	321.79	597.86	705.08	-154.84	639.08	517.43	-129.65	537.51	1297.8	269.51	682.75	293.22	-51.009	531.22	1455.2	-165.86	672.83	197.38	-52.545	122.16	176.04	115.29	659.85	1686.2	-45.735	499.5	599.48	216.98	565.45	28.109	-57.603	691.82	383.04	-51.884	651.8	89.366	-14.65	497.5	1116.4	245.44	523.98	788.04	220.73	662.33	296.24	-124.1	664.31	1690.9	30.997	549.66	1462.1	161.24	650.92	524.95	-0.21382	514.65	692.62	222.53	491.24	489.86	89.104	626.2	69.522	-97.311	724.55	22.715	-131.04	731.96	935.07	290.3	576.66	794.99	-167.38	825.13	31.311	-60.814	771.92	39.898	-46.329
673	3.365	751.95	901.49	345.98	623.87	616.48	-139.55	590.68	685.35	196.31	487.5	1632.2	-75.345	447.11	846.13	-256.01	509.84	793.33	-256.3	474.13	1281	-251.68	432.2	978.68	-269.22	430.48	1129.7	-265.07	307.49	229.8	137.36	601.89	1010.1	342.2	298.21	32.767	161.75	593.29	1036.5	162.61	397.79	1128.1	-194.41	213.8	63.333	205.52	349.06	307.35	206.21	471.3	1506.5	2.8376	473.3	489.16	216.18	666.85	725.97	-134.3	497.35	1643.4	66.535	381.66	1014.5	65.774	512.49	848.9	-205.49	260.87	44.641	135.15	684.15	899.98	339.28	445.59	355.31	153.46	591.62	1032.7	-119.22	376.4	291.52	143.92	656.9	1251.1	2.2753	373.78	1281.1	14.119	606.38	1423.7	0.55683	401.84	1420.1	140.7	380.33	1011.4	-11.869	185.7	171.03	172.34	524.31	1144.3	320.28	601.27	705.38	-155.54	641.17	517.35	-130.23	541.55	1298.3	268.51	683.94	292.96	-51.443	536.41	1456.1	-166.55	673.46	197.16	-52.825	129.77	180.56	115.08	664.74	1687	-46.544	508.3	599.54	217.32	565.41	28.089	-57.626	693.49	382.75	-52.497	651.81	89.351	-14.684	501.12	1117.3	243.72	530.46	788.41	220.43	663.26	296.01	-124.46	669.19	1691.8	30.186	554.35	1463	160.59	652.78	524.87	-0.87205	522.31	692.9	222.6	502.42	489.29	89.178	626.14	69.51	-97.324	724.52	22.698	-131.08	733.78	933.8	289.92	580.81	795.46	-168.15	825.09	31.37	-60.878	771.86	39.957	-46.383
674	3.37	753.14	899.89	345.58	626.52	616.6	-140.21	598.45	686.43	196.61	492.39	1633	-76.131	456.21	846.81	-257.28	519.47	794.63	-257.61	480.26	1281.9	-252.74	440.28	979.26	-270.63	437.41	1130.3	-266.48	315.7	231.85	137.78	604.07	1010	341.04	302.98	33.764	162.5	598.42	1037.3	161.75	404.5	1128.4	-195.91	219.54	66.394	205.87	357.81	309.08	206.53	476.19	1507.2	2.065	483.21	489.43	216.68	670.41	725.76	-135.06	502.2	1644.3	65.756	386.7	1015.2	64.869	521.67	850.21	-206.83	266.2	46.304	135.81	685.36	899.17	338.59	455.16	356.07	153.93	596.86	1033.6	-119.83	385.16	292.88	144.4	661.97	1252	1.6213	378.89	1281.8	13.176	611.32	1424.6	-0.085869	406.54	1420.8	139.73	385.42	1012.4	-12.81	193.16	174.39	172.42	527.68	1144.7	318.79	604.62	705.68	-156.21	643.2	517.27	-130.78	545.55	1298.8	267.56	685.07	292.71	-51.875	541.6	1457	-167.2	674.07	196.95	-53.107	137.63	184.75	114.87	669.6	1687.8	-47.304	517.04	599.69	217.64	565.36	28.072	-57.645	695.08	382.46	-53.098	651.82	89.342	-14.723	504.72	1118.1	242.03	536.88	788.85	220.15	664.13	295.78	-124.81	674.05	1692.7	29.422	559.02	1463.8	159.98	654.49	524.79	-1.5033	529.9	693.24	222.67	513.54	488.94	89.289	626.07	69.5	-97.338	724.49	22.674	-131.12	735.53	932.5	289.55	584.88	795.93	-168.9	825.05	31.423	-60.939	771.8	40.004	-46.433
675	3.375	754.26	898.26	345.2	629.13	616.73	-140.85	606.15	687.58	196.93	497.26	1633.8	-76.874	465.38	847.51	-258.54	529.19	795.98	-258.92	486.41	1282.7	-253.78	448.42	979.86	-272.05	444.37	1130.9	-267.89	324.13	233.83	138.15	606.2	1009.9	339.9	308.47	34.907	163.33	603.51	1038	160.96	411.22	1128.8	-197.43	225.83	69.428	206.27	366.72	310.77	206.81	481.07	1508	1.3274	493.08	489.79	217.14	673.9	725.56	-135.75	507.04	1645.1	65.022	391.69	1015.8	63.969	530.95	851.57	-208.17	272.18	48.076	136.53	686.51	898.36	337.91	464.82	356.92	154.34	602.05	1034.5	-120.39	394.06	294.26	144.8	667.01	1252.9	1.0065	383.98	1282.5	12.245	616.25	1425.4	-0.6918	411.22	1421.5	138.78	390.45	1013.3	-13.741	200.92	177.57	172.47	531.03	1145.1	317.31	607.91	705.98	-156.86	645.17	517.2	-131.31	549.5	1299.3	266.66	686.15	292.47	-52.298	546.79	1457.9	-167.81	674.64	196.75	-53.384	145.74	188.59	114.66	674.44	1688.7	-48.017	525.71	599.93	217.94	565.31	28.06	-57.662	696.61	382.17	-53.678	651.83	89.338	-14.767	508.31	1118.9	240.38	543.23	789.35	219.87	664.96	295.56	-125.16	678.88	1693.5	28.704	563.67	1464.6	159.42	656.07	524.71	-2.1005	537.43	693.66	222.73	524.56	488.81	89.436	625.99	69.493	-97.352	724.46	22.645	-131.16	737.21	931.18	289.2	588.9	796.39	-169.61	825.01	31.469	-60.996	771.74	40.04	-46.477
676	3.38	755.31	896.62	344.82	631.73	616.88	-141.46	613.78	688.82	197.26	502.12	1634.6	-77.573	474.62	848.23	-259.79	538.99	797.38	-260.25	492.57	1283.6	-254.8	456.62	980.48	-273.46	451.36	1131.6	-269.29	332.76	235.75	138.46	608.29	1009.7	338.78	314.69	36.176	164.23	608.58	1038.7	160.24	417.98	1129.1	-198.95	232.69	72.389	206.73	375.78	312.42	207.06	485.96	1508.7	0.62456	502.91	490.25	217.56	677.35	725.39	-136.37	511.86	1646	64.335	396.63	1016.5	63.076	540.31	852.96	-209.53	278.82	49.916	137.31	687.6	897.54	337.26	474.55	357.86	154.69	607.2	1035.3	-120.92	403.11	295.64	145.15	672.02	1253.7	0.43117	389.03	1283.2	11.327	621.17	1426.3	-1.2614	415.89	1422.1	137.85	395.41	1014.2	-14.658	208.98	180.54	172.5	534.37	1145.5	315.85	611.17	706.28	-157.47	647.09	517.12	-131.81	553.41	1299.8	265.81	687.18	292.24	-52.702	551.98	1458.8	-168.38	675.19	196.56	-53.65	154.09	192.06	114.45	679.25	1689.5	-48.683	534.32	600.27	218.2	565.26	28.051	-57.675	698.07	381.9	-54.229	651.82	89.341	-14.813	511.89	1119.7	238.76	549.52	789.92	219.6	665.75	295.35	-125.49	683.7	1694.4	28.031	568.31	1465.4	158.9	657.56	524.63	-2.6579	544.89	694.16	222.77	535.47	488.89	89.616	625.92	69.489	-97.366	724.43	22.614	-131.19	738.82	929.83	288.85	592.87	796.85	-170.3	824.97	31.506	-61.047	771.68	40.066	-46.516
